<svg width="204" height="25" xmlns="http://www.w3.org/2000/svg" xmlns:xlink="http://www.w3.org/1999/xlink" xml:space="preserve" overflow="hidden"><defs><clipPath id="clip0"><rect x="533" y="368" width="202" height="25"/></clipPath><clipPath id="clip1"><rect x="533" y="368" width="202" height="25"/></clipPath><clipPath id="clip2"><rect x="533" y="368" width="202" height="25"/></clipPath></defs><g transform="translate(-532 -368)"><g><g clip-path="url(#clip0)"><g clip-path="url(#clip1)"><g clip-path="url(#clip2)"><path d="M12.0747 0C5.41306 0 0 5.51238 0 12.2876 0 19.0628 5.42015 24.568 12.0747 24.568 18.7293 24.568 24.1495 19.0557 24.1495 12.2876 24.1495 5.51947 18.7293 0 12.0747 0ZM12.0747 20.6235C7.76841 20.6235 4.25666 16.8848 4.25666 12.2876 4.25666 7.69037 7.76132 3.9516 12.0747 3.9516 16.3882 3.9516 19.8857 7.69037 19.8857 12.2876 19.8857 16.8848 16.3811 20.6235 12.0747 20.6235Z" fill="#123E59" fill-rule="nonzero" fill-opacity="1" transform="matrix(1 0 0 1.00778 533 368.12)"/><path d="M74.3852 20.0347 59.3237 20.0347 59.3237 13.5504 67.8158 13.5504C67.9647 13.5504 68.0924 13.4298 68.0924 13.2737L68.0924 9.76904C68.0924 9.62006 67.9647 9.49236 67.8158 9.49236L59.3237 9.49236 59.3237 7.5272C59.3237 6.6333 59.3308 5.75359 59.3237 5.29245L59.3237 4.5972 73.5268 4.5972C73.6758 4.5972 73.8035 4.4695 73.8035 4.32051L73.8035 0.822955C73.8035 0.673972 73.6758 0.546272 73.5268 0.546272L55.4998 0.546272C55.3508 0.546272 55.2231 0.673972 55.2231 0.822955L55.2231 23.7451C55.2231 23.8941 55.3508 24.0218 55.4998 24.0218L74.3852 24.0218C74.5342 24.0218 74.6619 23.8941 74.6619 23.7451L74.6619 20.3114C74.6619 20.1624 74.5342 20.0347 74.3852 20.0347Z" fill="#123E59" fill-rule="nonzero" fill-opacity="1" transform="matrix(1 0 0 1.00778 533 368.12)"/><path d="M99.3576 0.546272 95.704 0.546272C95.555 0.546272 95.4344 0.666877 95.4344 0.815861L95.4344 15.9341 81.9266 0.666877C81.8557 0.588839 81.7563 0.546272 81.657 0.546272L79.5996 0.546272C79.4506 0.546272 79.33 0.666877 79.33 0.815861L79.33 3.80262C79.33 3.86647 79.3513 3.93032 79.401 3.97998L83.5299 8.63393 97.1087 23.9295C97.1584 23.9863 97.2364 24.0218 97.3144 24.0218L99.3647 24.0218C99.5137 24.0218 99.6343 23.9012 99.6343 23.7522L99.6343 0.815861C99.6343 0.666877 99.5137 0.546272 99.3647 0.546272Z" fill="#123E59" fill-rule="nonzero" fill-opacity="1" transform="matrix(1 0 0 1.00778 533 368.12)"/><path d="M79.3229 23.7522C79.3229 23.9012 79.4436 24.0218 79.5925 24.0218L83.2462 24.0218C83.3951 24.0218 83.5158 23.9012 83.5158 23.7522L83.5158 13.7277C83.5158 13.6497 83.4874 13.5717 83.4306 13.5149L79.7912 9.41432C79.628 9.22987 79.3158 9.34338 79.3158 9.59168L79.3158 23.7522Z" fill="#25C3C1" fill-rule="nonzero" fill-opacity="1" transform="matrix(1 0 0 1.00778 533 368.12)"/><path d="M107.339 23.7522 107.339 0.666877 121.57 0.666877C126.352 0.666877 128.743 2.66751 128.743 6.3779 128.743 8.26502 127.962 9.76195 126.522 10.6488 129.076 12.0889 130.41 14.2031 130.41 16.8067 130.41 20.9712 127.523 23.7451 122.294 23.7451L107.346 23.7451ZM122.684 12.8197 110.957 12.8197 110.957 20.4178 122.684 20.4178C125.238 20.4178 126.685 18.9776 126.685 16.5868 126.685 14.196 125.295 12.8126 122.684 12.8126ZM121.457 4.00126 110.95 4.00126 110.95 9.43561 121.514 9.43561C123.848 9.43561 125.018 8.49205 125.018 6.71844 125.018 4.94482 123.848 4.00126 121.464 4.00126Z" fill="#25C3C1" fill-rule="nonzero" fill-opacity="1" transform="matrix(1 0 0 1.00778 533 368.12)"/><path d="M136.547 23.7522 136.547 0.617216 140.215 0.617216 140.215 23.7522 136.547 23.7522Z" fill="#25C3C1" fill-rule="nonzero" fill-opacity="1" transform="matrix(1 0 0 1.00778 533 368.12)"/><path d="M148.21 23.7522 148.21 0.617216 151.211 0.617216 160.717 14.1534 170.224 0.617216 173.225 0.617216 173.225 23.7522 169.614 23.7522 169.614 7.10863 160.725 19.9779 151.828 7.10863 151.828 23.7522 148.217 23.7522Z" fill="#25C3C1" fill-rule="nonzero" fill-opacity="1" transform="matrix(1 0 0 1.00778 533 368.12)"/><path d="M178.936 20.808 180.717 17.7574C184.051 19.9779 188.052 21.1414 191.33 21.1414 195.665 21.1414 198.226 19.1408 198.226 16.6507 198.226 13.9335 195.835 12.77 190.997 12.6565 183.881 12.543 179.936 11.5497 179.936 6.61202 179.936 2.78102 183.491 0 189.5 0 193.501 0 197.225 1.10673 200.723 3.32729L198.886 6.32115C195.885 4.32051 192.387 3.27054 189.436 3.27054 185.768 3.27054 183.597 4.71071 183.597 6.59783 183.597 8.81839 185.988 9.42851 190.826 9.42851 198.275 9.42851 202 11.9825 202 16.8635 202 20.9712 198.169 24.4616 191.72 24.4616 187.329 24.4616 182.717 23.1846 178.936 20.8009Z" fill="#25C3C1" fill-rule="nonzero" fill-opacity="1" transform="matrix(1 0 0 1.00778 533 368.12)"/><path d="M48.8098 2.50434C48.0577 1.75233 46.3125 0.503705 43.0278 0.503705L29.6335 0.503705 29.6335 24.0076 33.7483 24.0076 33.7483 14.7281 43.4393 14.7281C44.2764 14.7281 46.8091 14.7281 48.753 12.7345 49.6185 11.8264 50.6614 10.1734 50.6614 7.50592 50.6614 4.83841 49.654 3.3202 48.8098 2.51143ZM45.4541 9.97478 45.4399 9.98897 45.4115 10.0174C44.6311 10.6488 43.4605 10.7835 42.6234 10.7835L33.7553 10.7835 33.7553 4.38436 42.8575 4.38436C43.7372 4.38436 44.7446 4.44112 45.5179 5.11509 45.9365 5.53366 46.4686 6.20764 46.4686 7.44916 46.4686 8.46367 46.128 9.315 45.4612 9.97478Z" fill="#123E59" fill-rule="nonzero" fill-opacity="1" transform="matrix(1 0 0 1.00778 533 368.12)"/></g></g></g></g></g></svg>